<svg id="Layer_1" data-name="Layer 1" xmlns="http://www.w3.org/2000/svg" viewBox="0 0 48 48"><path d="M38,28.5a2.47693,2.47693,0,0,0-.88928.1709l-2.97241-4.671,2.97216-4.6709A2.47711,2.47711,0,0,0,38,19.5a2.5,2.5,0,1,0-1.86865-4.14386L26.36444,9.77557A2.46755,2.46755,0,0,0,26.5,9a2.5,2.5,0,0,0-5,0,2.46574,2.46574,0,0,0,.13556.77527l-9.76691,5.58111A2.50232,2.50232,0,1,0,10.889,19.3291l2.97259,4.67108L10.88928,28.671A2.47593,2.47593,0,0,0,10,28.5a2.5,2.5,0,1,0,1.86865,4.14386l9.76666,5.5813A2.46827,2.46827,0,0,0,21.5,39a2.5,2.5,0,0,0,5,0,2.46754,2.46754,0,0,0-.13525-.77472l9.76666-5.58118A2.49541,2.49541,0,1,0,38,28.5Zm-1.73438.70593a2.51645,2.51645,0,0,0-.22253.257l-4.08215-2.04126,1.58459-2.49023Zm-13.155,7.465-5.63276-8.8512,4.56531-2.28271A2.49368,2.49368,0,0,0,23.5,26.44946V36.55054A2.46483,2.46483,0,0,0,23.1106,36.671Zm1.77893-25.342,5.63238,8.851-4.56537,2.28266A2.493,2.493,0,0,0,24.5,21.5506V11.4494A2.46636,2.46636,0,0,0,24.88953,11.329ZM24,25.5a1.5,1.5,0,0,1-1.382-2.08313l.00043-.00085a1.4999,1.4999,0,0,1,2.76318,0l.00043.00085A1.5,1.5,0,0,1,24,25.5Zm-.5-14.0506V21.5506a2.49311,2.49311,0,0,0-1.45642.91211L17.47815,20.18l5.63251-8.851A2.46413,2.46413,0,0,0,23.5,11.4494Zm-1.9054,11.907a2.23744,2.23744,0,0,0-.00006,1.28724l-4.65637,2.32812-1.891-2.97156,1.89123-2.97192ZM24.5,36.55054V26.44946a2.49285,2.49285,0,0,0,1.45691-.91235l4.565,2.2829-5.63214,8.851A2.4631,2.4631,0,0,0,24.5,36.55054Zm1.90552-11.90686a2.23921,2.23921,0,0,0-.00006-1.28736l4.65625-2.32806,1.891,2.97162-1.89118,2.972Zm7.14-1.57532-1.58447-2.48981,4.0824-2.0412a2.518,2.518,0,0,0,.222.25647ZM38,15.5a1.5,1.5,0,1,1-.832,2.74677l-.009-.00574a1.50911,1.50911,0,0,1-.54053-.657l-.00043-.00085A1.5,1.5,0,0,1,38,15.5Zm-2.36444.72449a2.26435,2.26435,0,0,0-.041,1.41919l-4.17328,2.08661L25.7345,10.79382c.04834-.04681.0896-.09942.13409-.1499ZM24,7.5a1.49935,1.49935,0,0,1,.84106,2.741l-.009.00574A1.49954,1.49954,0,1,1,24,7.5Zm-1.86865,3.14362c.04455.05059.08587.10333.13434.1502L16.5788,19.73035l-4.1734-2.08673a2.2628,2.2628,0,0,0-.041-1.41889ZM8.5,17a1.5,1.5,0,1,1,2.882.58313l-.00043.00085A1.5,1.5,0,0,1,8.5,17Zm3.23407,1.794a2.51738,2.51738,0,0,0,.22235-.25672L16.039,20.57855l-1.58465,2.49011Zm2.72028,6.13769,1.58441,2.48969-4.08234,2.04107a2.5131,2.5131,0,0,0-.22211-.25647ZM8.5,31a1.49923,1.49923,0,0,1,2.33728-1.2439l.00116.00074A1.49978,1.49978,0,1,1,8.5,31Zm3.86469.77478a2.26416,2.26416,0,0,0,.04071-1.41864l4.17309-2.08667,5.68707,8.93665c-.04852.047-.09.09985-.13464.15057ZM24,40.5a1.49891,1.49891,0,0,1-.84528-2.73749l.02185-.01391a1.48915,1.48915,0,0,1,1.65021.00177l.01685.01074A1.49909,1.49909,0,0,1,24,40.5Zm1.86847-3.14429c-.04431-.05035-.08551-.10284-.13373-.14947l5.68652-8.93646,4.1731,2.08691a2.26533,2.26533,0,0,0,.04095,1.41821ZM38,32.5a1.49968,1.49968,0,0,1-1.38239-2.08185l.00385-.00775a1.50878,1.50878,0,0,1,.5401-.65356l.00116-.00074A1.49977,1.49977,0,1,1,38,32.5Z"/></svg>
