<svg id="Layer_1" data-name="Layer 1" xmlns="http://www.w3.org/2000/svg" viewBox="0 0 48 48"><path d="M43.4541,21.5h-1V21A9.465,9.465,0,0,0,33,11.5459h-.5v-1H33A10.46562,10.46562,0,0,1,43.4541,21Z"/><path d="M37.48145,21.5h-1V21A3.4854,3.4854,0,0,0,33,17.51855h-.5v-1H33A4.48671,4.48671,0,0,1,37.48145,21Z"/><path d="M38.71094,26.31152l-6.49121-1.77-5.8545-4.23584a4.50273,4.50273,0,0,0-2.65625-.855l-11.89453.0503L4.5,25.77051v5.624a2.4994,2.4994,0,0,0,.41992,1.38672L6.73242,35.5H8.85107a3.47894,3.47894,0,0,0,6.29786,0H31.85107a3.47894,3.47894,0,0,0,6.29786,0H43.5V32.583A6.5149,6.5149,0,0,0,38.71094,26.31152Zm-14.998-5.86084a3.38164,3.38164,0,0,1,2.06641.665L30.45605,24.5H26.5v-2h-1v2H20.70459l-1.08044-4.03217ZM19.66827,24.5H13.38379l-1.07221-4.00153,6.27741-.0263ZM12,36.5A2.5,2.5,0,1,1,14.5,34,2.5,2.5,0,0,1,12,36.5Zm3.44946-2A3.45571,3.45571,0,0,0,15.5,34a3.5,3.5,0,0,0-7,0,3.45571,3.45571,0,0,0,.05054.5h-1.283L5.752,32.22754a1.50382,1.50382,0,0,1-.25195-.833V28.5h2v-1h-2V26.22949l5.946-5.09656L12.61621,25.5h7.32l1.60773,6H17.5v1h4.312l.53589,2ZM35,36.5A2.5,2.5,0,1,1,37.5,34,2.5,2.5,0,0,1,35,36.5Zm7.5-2H38.44946A3.4543,3.4543,0,0,0,38.5,34a3.5,3.5,0,0,0-7,0,3.45571,3.45571,0,0,0,.05054.5H23.38422l-.53595-2H29.5v-1H22.58032l-1.60779-6H32v-.01343l6.44727,1.7898A5.47874,5.47874,0,0,1,41.53229,29.5H39.5v1h2.57056A5.44836,5.44836,0,0,1,42.5,32.583Z"/></svg>
