<svg xmlns="http://www.w3.org/2000/svg" fill="none" viewBox="0 0 102 17" height="17" width="102">
<path fill="#AA4BD4" d="M0 4C0 1.79086 1.79086 0 4 0H93V17H4C1.79086 17 0 15.2091 0 13V4Z"></path>
<path fill-opacity="0.8" fill="#AA4BD4" d="M93 0H95.746C98.5606 0 99.9679 0 100.558 0.92238C101.148 1.84476 100.558 3.12233 99.3773 5.67747L94.6277 15.9589C94.3345 16.5936 93.6992 17 93 17V0Z"></path>
<path fill-opacity="0.8" fill="#AA4BD4" d="M93 17H95.746C98.5606 17 99.9679 17 100.558 16.0776C101.148 15.1552 100.558 13.8777 99.3773 11.3225L94.6277 1.04109C94.3345 0.406391 93.6992 0 93 0V17Z"></path>
</svg>
