<svg id="Layer_1" data-name="Layer 1" xmlns="http://www.w3.org/2000/svg" viewBox="0 0 48 48"><path d="M40.50488,24a3.5,3.5,0,1,0-5.293,2.98962L35.61621,28.5H36.5v2a8.99494,8.99494,0,0,1-17.93469,1h1.81848l.65851-2.45746A10.48776,10.48776,0,0,0,28.5,19V11c0-1.884-1.82068-3.41455-4.08795-3.48651a1.49843,1.49843,0,1,0-.00788.99847C26.12335,8.57532,27.5,9.66168,27.5,11v8a9.4921,9.4921,0,0,1-6.14746,8.88489L21.72363,26.5H14.27637l.372,1.388A9.51581,9.51581,0,0,1,8.5,19V11c0-1.33832,1.37665-2.42468,3.09583-2.488a1.50157,1.50157,0,1,0-.00788-.99847C9.32117,7.58545,7.5,9.116,7.5,11v8a10.51048,10.51048,0,0,0,7.45789,10.04321L15.61621,31.5h1.945A9.99421,9.99421,0,0,0,37.5,30.5v-2h.88379l.40271-1.50415A3.48922,3.48922,0,0,0,40.50488,24ZM23,8.5a.5.5,0,1,1,.5-.5A.50065.50065,0,0,1,23,8.5Zm-10-1a.5.5,0,1,1-.5.5A.50065.50065,0,0,1,13,7.5Zm2.58008,20h4.83984l-.80371,3H16.38379ZM34.50488,24a2.5,2.5,0,1,1,2.5,2.5A2.50232,2.50232,0,0,1,34.50488,24Z"/><circle cx="37.005" cy="24" r="1"/></svg>
