<svg id="common_cog" data-name="common/cog" xmlns="http://www.w3.org/2000/svg" width="16" height="16"><path id="Subtract" d="m3.873 4.364 1.427.684a4 4 0 0 1 1.493-.863l.122-1.578a5.555 5.555 0 0 1 2.17 0l.122 1.578a4 4 0 0 1 1.493.863l1.427-.684a5.494 5.494 0 0 1 1.086 1.879l-1.306.895a4.036 4.036 0 0 1 0 1.725l1.307.895a5.494 5.494 0 0 1-1.087 1.878l-1.427-.684a4 4 0 0 1-1.493.863l-.12 1.578a5.555 5.555 0 0 1-2.17 0l-.123-1.578a4 4 0 0 1-1.493-.863l-1.427.684a5.494 5.494 0 0 1-1.087-1.879l1.307-.895a4.036 4.036 0 0 1 0-1.725l-1.307-.894a5.494 5.494 0 0 1 1.086-1.879ZM8 9.5A1.5 1.5 0 1 0 6.5 8 1.5 1.5 0 0 0 8 9.5Z" fill="none" stroke="#fff" stroke-width="1"/></svg>