<svg xmlns="http://www.w3.org/2000/svg" fill="none" viewBox="0 0 127 23" height="23" width="127">
<g opacity="0.999">
<path fill="#0066CC" d="M81.7071 5.12473C82.2934 4.52673 82.9984 4.06084 83.7732 3.74794C84.5479 3.43503 85.3855 3.28205 86.2231 3.29596C86.9141 3.29596 87.5982 3.40721 88.2543 3.60887H93.4892V5.74359H91.123C92.1072 6.78662 92.6446 8.17731 92.6167 9.60973C92.6237 10.8614 92.2398 12.0852 91.5279 13.1213C92.0863 13.601 92.526 14.1921 92.8191 14.8666C93.1123 15.5341 93.2589 16.2642 93.2379 16.9944C93.2449 17.7801 93.0774 18.5658 92.7494 19.2751C92.4143 19.9913 91.9327 20.6241 91.3185 21.1247C90.0202 22.2512 88.345 22.8562 86.6209 22.8075C85.4972 22.8353 84.3804 22.6058 83.3613 22.1191C82.3074 21.5419 81.3441 20.8118 80.5135 19.9426L82.1817 18.2599C82.8099 18.9274 83.5289 19.5115 84.3176 19.9774C85.0295 20.3529 85.8183 20.5406 86.6209 20.5198C87.7168 20.5545 88.7987 20.1999 89.6503 19.5115C90.0342 19.2125 90.3482 18.8301 90.5576 18.392C90.767 17.9539 90.8787 17.4741 90.8717 16.9874C90.8857 16.5632 90.8019 16.1391 90.6205 15.7497C90.446 15.3603 90.1807 15.0196 89.8527 14.7484C88.7987 15.5133 87.5144 15.9235 86.2091 15.9027C85.3716 15.9235 84.534 15.7705 83.7592 15.4576C82.9844 15.1447 82.2725 14.6788 81.6861 14.0878C80.4996 12.8918 79.8365 11.2786 79.8365 9.59583C79.8365 7.91308 80.5065 6.29987 81.6931 5.10387L81.7071 5.12473ZM83.3264 12.5093C83.7034 12.8918 84.1571 13.1908 84.6526 13.3994C85.1482 13.608 85.6857 13.7123 86.2231 13.7123C86.7606 13.7123 87.298 13.608 87.7936 13.4063C88.2892 13.2047 88.7429 12.8987 89.1268 12.5233C89.8876 11.7445 90.3064 10.7014 90.3064 9.61669C90.3064 8.53194 89.8806 7.48892 89.1268 6.71013C88.359 5.94524 87.312 5.52108 86.2301 5.52108C85.1412 5.52108 84.1012 5.9522 83.3334 6.71013C82.9495 7.09257 82.6424 7.54455 82.44 8.05215C82.2376 8.55976 82.1399 9.09518 82.1538 9.63755C82.1399 10.173 82.2446 10.7084 82.447 11.2021C82.6354 11.6819 82.9425 12.1339 83.3264 12.5093Z"></path>
<path fill="#0066CC" d="M95.7298 17.2238V3.60887H98.1239V17.2238H95.7298Z"></path>
<path fill="#0066CC" d="M102.584 5.34029C103.261 4.67275 104.064 4.14429 104.943 3.78966C105.83 3.43503 106.779 3.26815 107.728 3.29596C108.712 3.2751 109.697 3.4698 110.597 3.86615C111.497 4.2625 112.3 4.8605 112.942 5.60452L111.972 7.71838C111.504 7.0439 110.876 6.50152 110.136 6.12603C109.403 5.75054 108.594 5.5628 107.77 5.57671C107.121 5.5628 106.479 5.68101 105.879 5.91743C105.278 6.1608 104.727 6.51543 104.273 6.97436C103.806 7.41938 103.443 7.96176 103.198 8.55976C102.954 9.15776 102.835 9.79748 102.849 10.4372C102.835 11.0769 102.954 11.7097 103.198 12.3007C103.443 12.8918 103.813 13.4203 104.273 13.8653C104.734 14.3173 105.278 14.6719 105.886 14.9083C106.486 15.1447 107.128 15.2629 107.777 15.2421C108.601 15.256 109.417 15.0752 110.15 14.6997C110.883 14.3242 111.511 13.7749 111.979 13.1004L112.949 15.2143C112.307 15.9583 111.504 16.5563 110.604 16.9526C109.704 17.349 108.719 17.5437 107.735 17.5228C106.779 17.5437 105.83 17.3768 104.943 17.0222C104.057 16.6675 103.254 16.1391 102.577 15.4646C101.237 14.1156 100.483 12.2938 100.49 10.3955C100.49 8.50413 101.244 6.68927 102.584 5.34029Z"></path>
<path fill="#0066CC" d="M115.336 11.063C116.418 10.1243 117.619 9.33855 118.91 8.70578L119.489 8.39287L119.224 7.86441C118.959 7.23164 118.596 6.64059 118.135 6.12603C117.947 5.94524 117.724 5.79922 117.479 5.70882C117.235 5.61843 116.97 5.57671 116.711 5.58366C116.314 5.59061 115.923 5.6671 115.553 5.79922L115.986 3.42112C116.335 3.35159 116.691 3.30987 117.047 3.30291C117.926 3.26814 118.791 3.56715 119.462 4.14429C120.257 4.95089 120.899 5.89657 121.346 6.93264L124.173 12.9474C124.417 13.5593 124.738 14.1295 125.129 14.6649C125.262 14.8457 125.436 14.9917 125.632 15.0891C125.834 15.1864 126.051 15.2351 126.274 15.2351C126.497 15.2351 126.714 15.2073 126.923 15.1378V17.4185C126.609 17.502 126.281 17.5437 125.96 17.5367C125.429 17.5159 124.913 17.3698 124.452 17.1126C123.992 16.8553 123.594 16.4867 123.308 16.0487C122.044 17.0291 120.488 17.5506 118.889 17.5367C117.661 17.5924 116.446 17.2308 115.448 16.5007C115.029 16.1877 114.694 15.7775 114.464 15.3116C114.234 14.8457 114.122 14.3242 114.136 13.8027C114.129 13.2881 114.227 12.7736 114.436 12.3007C114.638 11.8349 114.946 11.4107 115.336 11.063ZM117.221 14.8874C117.744 15.2282 118.359 15.402 118.98 15.3742C120.167 15.402 121.325 14.9848 122.219 14.1921C122.198 14.1573 122.184 14.1226 122.156 14.0947C122.135 14.0669 122.121 14.0322 122.121 13.9974L120.362 10.2425L119.852 10.5067C118.931 10.9726 118.052 11.5219 117.228 12.1478C117.005 12.3286 116.823 12.558 116.698 12.8153C116.572 13.0726 116.509 13.3577 116.516 13.6497C116.516 13.9 116.579 14.1365 116.704 14.352C116.83 14.5815 117.005 14.7623 117.221 14.8874Z"></path>
<path fill="#0066CC" d="M0 17.2238L7.76866 0.0764889H7.9641L15.7328 17.2238H13.0036L11.8659 14.651H3.83198L2.69425 17.2238H0ZM10.9376 12.4607L7.87336 5.43764L4.80917 12.4607H10.9376Z"></path>
<path fill="#0066CC" d="M16.2004 10.4163C16.1795 9.48457 16.347 8.55976 16.689 7.69057C17.031 6.82138 17.5476 6.03564 18.2037 5.3681C18.8319 4.70057 19.5997 4.1721 20.4442 3.81052C21.2958 3.45589 22.2032 3.28205 23.1245 3.29596C24.0947 3.26815 25.058 3.4698 25.9374 3.88701C26.8169 4.30422 27.5847 4.91612 28.178 5.68101V3.61582H30.593V22.5154H28.178V15.1517C27.5847 15.9166 26.8169 16.5285 25.9374 16.9457C25.058 17.3559 24.0947 17.5645 23.1245 17.5367C22.2032 17.5576 21.2888 17.3768 20.4442 17.0222C19.5927 16.6675 18.8319 16.1391 18.2037 15.4646C17.5476 14.797 17.031 14.0113 16.689 13.1421C16.347 12.2729 16.1795 11.3481 16.2004 10.4163ZM18.5666 10.4163C18.5527 11.0491 18.6713 11.6819 18.9156 12.2729C19.1599 12.864 19.5159 13.3924 19.9696 13.8444C20.4163 14.3033 20.9468 14.6649 21.5331 14.9083C22.1194 15.1517 22.7546 15.2699 23.3967 15.256C24.0319 15.2699 24.6601 15.1517 25.2394 14.9083C25.8188 14.6649 26.3492 14.3033 26.789 13.8514C27.6824 12.9335 28.178 11.7027 28.178 10.4233C28.178 9.14385 27.6824 7.91308 26.789 6.99522C26.3492 6.54324 25.8258 6.18166 25.2394 5.93829C24.6531 5.69492 24.0249 5.57671 23.3967 5.59061C22.7616 5.57671 22.1264 5.69492 21.5331 5.93829C20.9468 6.18166 20.4093 6.54324 19.9696 6.99522C19.5159 7.44024 19.1529 7.97566 18.9156 8.56671C18.6713 9.14385 18.5527 9.77662 18.5666 10.4163Z"></path>
<path fill="#0066CC" d="M33.3431 3.60887H35.7582V12.1686C35.7303 12.5858 35.7931 13.003 35.9327 13.3924C36.0723 13.7818 36.2887 14.1434 36.5679 14.4563C36.861 14.7345 37.217 14.957 37.6009 15.096C37.9848 15.2351 38.3966 15.2977 38.8014 15.2768C39.29 15.3047 39.7786 15.2282 40.2393 15.0543C40.693 14.8735 41.1048 14.6023 41.4468 14.2477C42.1169 13.4063 42.4519 12.3425 42.3752 11.2647V3.61582H44.7693V17.2308H42.3752V15.6801C41.9075 16.292 41.2933 16.7788 40.5883 17.1056C39.8833 17.4255 39.1155 17.5715 38.3408 17.5298C37.6707 17.5645 37.0006 17.4602 36.3724 17.2169C35.7442 16.9804 35.1719 16.6119 34.6972 16.146C34.2366 15.6454 33.8736 15.0543 33.6433 14.4146C33.4129 13.7749 33.3082 13.0934 33.3431 12.412V3.60887Z"></path>
<path fill="#0066CC" d="M48.2313 11.063C49.3132 10.1312 50.5138 9.33855 51.8051 8.70578L52.3844 8.39287L52.1192 7.86441C51.8539 7.23164 51.484 6.64059 51.0303 6.12603C50.8418 5.94524 50.6185 5.79922 50.3742 5.70882C50.1299 5.61843 49.8646 5.57671 49.6064 5.58366C49.2085 5.59061 48.8176 5.6671 48.4477 5.79922L48.8805 3.42112C49.2295 3.35159 49.5854 3.30987 49.9414 3.30291C50.8209 3.26814 51.6864 3.56715 52.3565 4.14429C53.1522 4.95089 53.7943 5.89657 54.2411 6.93264L57.0679 12.9474C57.3122 13.5593 57.6333 14.1365 58.0242 14.6649C58.1568 14.8457 58.3313 14.9848 58.5267 15.0891C58.7292 15.1864 58.9455 15.2351 59.1689 15.2351C59.3922 15.2351 59.6086 15.2073 59.818 15.1378V17.4185C59.5039 17.502 59.1759 17.5437 58.8478 17.5367C58.3173 17.5159 57.8008 17.3698 57.3401 17.1126C56.8795 16.8553 56.4886 16.4867 56.1954 16.0487C54.9321 17.0291 53.3755 17.5506 51.7771 17.5367C50.5487 17.5924 49.3342 17.2308 48.336 16.5007C47.9172 16.1877 47.5822 15.7844 47.3519 15.3116C47.1215 14.8457 47.0098 14.3242 47.0238 13.8027C47.0168 13.2881 47.1145 12.7736 47.3239 12.3007C47.5403 11.8349 47.8474 11.4107 48.2313 11.063ZM50.1159 14.8874C50.6394 15.2282 51.2536 15.402 51.8749 15.3742C53.0614 15.402 54.2201 14.9848 55.1135 14.1921C55.0996 14.1573 55.0786 14.1226 55.0577 14.0947C55.0368 14.0669 55.0228 14.0322 55.0228 13.9974L53.2639 10.2425L52.7543 10.5067C51.833 10.9726 50.9535 11.5219 50.1299 12.1478C49.9065 12.3286 49.725 12.558 49.5994 12.8153C49.4738 13.0726 49.4109 13.3577 49.4179 13.6497C49.4179 13.9 49.4877 14.1365 49.6064 14.352C49.725 14.5815 49.9065 14.7623 50.1159 14.8874Z"></path>
<path fill="#0066CC" d="M61.3187 17.2238V0H63.7058V17.2169H61.3187V17.2238Z"></path>
<path fill="#0066CC" d="M72.0887 17.5298C68.5569 17.5298 65.6881 14.9917 65.6812 11.8766C65.6951 10.6319 66.1488 9.4359 66.9655 8.49022L72.0887 2.45459L77.212 8.49022C78.0217 9.4359 78.4754 10.6389 78.4963 11.8835C78.4963 14.9917 75.6206 17.5298 72.0887 17.5298ZM68.0334 11.9531C68.1521 12.9405 68.6337 13.8514 69.3805 14.5119C70.1274 15.1725 71.0906 15.5341 72.0887 15.5341C73.0869 15.5341 74.0501 15.1725 74.797 14.5119C75.5438 13.8514 76.0254 12.9405 76.1441 11.9531C76.1371 11.1604 75.8439 10.4024 75.3344 9.80443L72.0887 5.98696L68.8431 9.81139C68.3266 10.4024 68.0334 11.1604 68.0334 11.9531Z"></path>
</g>
</svg>
