<svg enable-background="new 0 0 48 48" viewBox="0 0 48 48" xmlns="http://www.w3.org/2000/svg"><path d="m42.5 33.5v-23h-37v23h14.84717l-.80365 3h-3.04352v1h14.99902v-1h-3.04352l-.80408-3zm-36-22h35v21h-35zm20.92004 25h-6.84119l.80347-3h5.23389z"/><path d="m30 23.5c-.6192 0-1.17932.23486-1.61646.60889l-2.02863-1.30273c.0874-.25439.14508-.52246.14508-.80615 0-.23926-.04449-.46582-.10754-.68555l1.9649-1.96484c.19556.09375.41174.15039.64264.15039.82715 0 1.5-.67285 1.5-1.5s-.67285-1.5-1.5-1.5-1.5.67285-1.5 1.5c0 .23096.05676.44727.15027.64258l-1.75085 1.75098c-.42761-.50488-1.04602-.83496-1.74713-.87793l-.37402-2.23975c.43091-.26367.72174-.73486.72174-1.27588 0-.82715-.67285-1.5-1.5-1.5s-1.5.67285-1.5 1.5c0 .7583.56726 1.37988 1.29846 1.47949l.36334 2.17578c-.57184.20508-1.04218.61035-1.33527 1.13379l-3.34393-.96094c-.08649-.74561-.71429-1.32812-1.4826-1.32812-.82715 0-1.5.67285-1.5 1.5s.67285 1.5 1.5 1.5c.53033 0 .99457-.27832 1.26135-.69482l3.26465.93799c-.00891.08594-.026.16895-.026.25684 0 .48145.14325.92773.38007 1.30957l-1.49011 1.61426c-.39783-.26709-.87579-.42383-1.38995-.42383-1.37842 0-2.5 1.12158-2.5 2.5s1.12158 2.5 2.5 2.5 2.5-1.12158 2.5-2.5c0-.50293-.1521-.96924-.40851-1.36182l1.47394-1.59717c.40686.28711.90009.45898 1.43457.45898.7348 0 1.38995-.32471 1.84778-.83105l1.91809 1.23193c-.16473.33301-.26587.70312-.26587 1.09912 0 1.37842 1.12158 2.5 2.5 2.5s2.5-1.12158 2.5-2.5-1.12158-2.5-2.5-2.5zm-1-6c.27588 0 .5.22412.5.5s-.22412.5-.5.5-.5-.22412-.5-.5.22412-.5.5-.5zm-12 3c-.27588 0-.5-.22412-.5-.5s.22412-.5.5-.5.5.22412.5.5-.22412.5-.5.5zm6-5c.27588 0 .5.22412.5.5s-.22412.5-.5.5-.5-.22412-.5-.5.22412-.5.5-.5zm-4 13c-.82715 0-1.5-.67285-1.5-1.5s.67285-1.5 1.5-1.5 1.5.67285 1.5 1.5-.67285 1.5-1.5 1.5zm3.5-6.5c0-.71973.50989-1.32178 1.18726-1.46631l.03442-.00537c.09039-.01709.18304-.02832.27832-.02832.82715 0 1.5.67285 1.5 1.5 0 .30078-.09106.58008-.24426.81543l-.02234.03467c-.27087.39209-.72211.6499-1.2334.6499-.82715 0-1.5-.67285-1.5-1.5zm7.5 5.5c-.82715 0-1.5-.67285-1.5-1.5s.67285-1.5 1.5-1.5 1.5.67285 1.5 1.5-.67285 1.5-1.5 1.5z"/><path d="m0 0h48v48h-48z" fill="none"/></svg>