<svg viewBox="0 0 48 48" xmlns="http://www.w3.org/2000/svg"><path d="m34.5 40.5h6v-17h-6zm1-16h4v15h-4z"/><path d="m25.5 40.5h6v-14.02344h-6zm1-13.02344h4v12.02344h-4z"/><path d="m16.5 40.52344h6v-9.07032h-6zm1-8.07032h4v7.07032h-4z"/><path d="m7.5 40.5h6v-14h-6zm1-13h4v12h-4z"/><path d="m35 18.55566a5.50756 5.50756 0 1 0 -4.24915-2.01275l-6.4862 6.43072-4.9541-4.9541-6.01755 5.97852.70508.709 5.31054-5.27539 4.95215 4.95313 7.19373-7.13147a5.47227 5.47227 0 0 0 3.5455 1.30234zm0-10a4.5 4.5 0 1 1 -4.5 4.5 4.50492 4.50492 0 0 1 4.5-4.5z"/><path d="m34.5 16.27832h1v-1.09082h1.169a1.31592 1.31592 0 1 0 0-2.63184h-1.169v-.665h2.48535v-1h-2.48535v-1.03812h-1v1.03808h-1.19629a1.33262 1.33262 0 0 0 0 2.665h1.19629v.63184h-2.5127v1h2.5127zm-1.19629-3.72266a.32484.32484 0 0 1 -.31641-.34863.31634.31634 0 0 1 .31641-.31641h1.19629v.665zm2.19629 1h1.169a.31592.31592 0 1 1 0 .63184h-1.169z"/></svg>
