<svg viewBox="0 0 48 48" xmlns="http://www.w3.org/2000/svg"><path d="m36 38.49514a2.5 2.5 0 1 1 2.5-2.5 2.50263 2.50263 0 0 1 -2.5 2.5zm0-4a1.5 1.5 0 1 0 1.5 1.5 1.50164 1.50164 0 0 0 -1.5-1.5z"/><path d="m24 38.49514a2.5 2.5 0 1 1 2.5-2.5 2.50263 2.50263 0 0 1 -2.5 2.5zm0-4a1.5 1.5 0 1 0 1.5 1.5 1.50164 1.50164 0 0 0 -1.5-1.5z"/><path d="m12 38.49514a2.5 2.5 0 1 1 2.5-2.5 2.50263 2.50263 0 0 1 -2.5 2.5zm0-4a1.5 1.5 0 1 0 1.5 1.5 1.50164 1.50164 0 0 0 -1.5-1.5z"/><path d="m39.5 33.19693v-15.20179l-1.10938-4.5h-23.78173l-1.09876-5.50006h-1.01971l1.09881 5.50006h-3.97985l-1.09473 4.37891-.01365 15.32642a4.455 4.455 0 0 0 -1.001 2.79467 4.5 4.5 0 0 0 9 0 4.44744 4.44744 0 0 0 -.27643-1.5h3.55286a4.44744 4.44744 0 0 0 -.27643 1.5 4.5 4.5 0 0 0 9 0 4.44744 4.44744 0 0 0 -.27643-1.5h3.55286a4.44744 4.44744 0 0 0 -.27643 1.5 4.5 4.5 0 0 0 9 0 4.42161 4.42161 0 0 0 -1-2.79821zm-1-14.70179v3h-7v1h7v3h-8.10938l-1.75-7zm-28.10938-4h27.21876l.75018 3h-28.71912zm-.89062 4h18.10938l2 8h8.89062v5.78534a4.53663 4.53663 0 0 0 -1.26123-.59021l-.855-3.19513h-25l-1.88377-7.0318zm2.5 21a3.5 3.5 0 1 1 3.5-3.5 3.50424 3.50424 0 0 1 -3.5 3.5zm12 0a3.5 3.5 0 1 1 3.5-3.5 3.50424 3.50424 0 0 1 -3.5 3.5zm3.73822-6a4.49357 4.49357 0 0 0 -7.47644 0h-4.52356a4.48978 4.48978 0 0 0 -6.23822-1.23822v-6.92706l1.11621 4.16528h25l.5387 2.01569c-.05262-.00183-.10187-.01569-.15491-.01569a4.49774 4.49774 0 0 0 -3.73822 2zm8.26178 6a3.5 3.5 0 1 1 3.5-3.5 3.50424 3.50424 0 0 1 -3.5 3.5z"/></svg>
