<svg viewBox="0 0 48 48" xmlns="http://www.w3.org/2000/svg"><path d="m36.48926 22.6416.69726.7168a10.97541 10.97541 0 0 0 0-15.7168l-.69726.7168a9.97546 9.97546 0 0 1 0 14.2832z"/><path d="m36.02344 19.001a4.88876 4.88876 0 0 0 0-7.002l-.69727.7168a3.88878 3.88878 0 0 1 0 5.56836z"/><path d="m11.51074 22.6416a9.97546 9.97546 0 0 1 0-14.2832l-.69726-.7168a10.97541 10.97541 0 0 0 0 15.7168z"/><path d="m11.97656 19.001.69727-.7168a3.88878 3.88878 0 0 1 0-5.56836l-.69727-.7168a4.88876 4.88876 0 0 0 0 7.002z"/><path d="m25.45605 35.5h-.95605v-4h1.999v-2h-1v1h-.999v-2h1.999v-2h-1v1h-.999v-2h1.999v-2h-1v1h-.999v-2h1v-6.5h2v6.5h3v-14h-3v6.5h-2v-6.5h-3v6.5h-2v-6.5h-3v14h3v-6.5h2v6.5h1v13h-.81152l-1.0719 4h-14.11658v1h33v-1h-13.97284zm3.04395-26h1v12h-1zm-9 12h-1v-12h1zm4-12h1v12h-1zm-.84863 30 .80468-3h1.23243l.80371 3z"/></svg>
